<mxfile host="app.diagrams.net" modified="2024-03-12T07:32:27.411Z" agent="Mozilla/5.0 (Windows NT 10.0; Win64; x64) AppleWebKit/537.36 (KHTML, like Gecko) Chrome/122.0.0.0 Safari/537.36" etag="Jr4el89yPn-lM0N09CBd" version="24.0.4" type="github">
  <diagram name="페이지-1" id="9XUS-zujEw5i6XTje2pb">
    <mxGraphModel dx="1877" dy="1734" grid="1" gridSize="10" guides="1" tooltips="1" connect="1" arrows="1" fold="1" page="1" pageScale="1" pageWidth="827" pageHeight="1169" math="0" shadow="0">
      <root>
        <mxCell id="0" />
        <mxCell id="1" parent="0" />
        <mxCell id="5tYZJrWsI3M2HunDDOS0-2" value="AWS Cloud" style="points=[[0,0],[0.25,0],[0.5,0],[0.75,0],[1,0],[1,0.25],[1,0.5],[1,0.75],[1,1],[0.75,1],[0.5,1],[0.25,1],[0,1],[0,0.75],[0,0.5],[0,0.25]];outlineConnect=0;gradientColor=none;html=1;whiteSpace=wrap;fontSize=12;fontStyle=0;container=1;pointerEvents=0;collapsible=0;recursiveResize=0;shape=mxgraph.aws4.group;grIcon=mxgraph.aws4.group_aws_cloud_alt;strokeColor=#232F3E;fillColor=none;verticalAlign=top;align=left;spacingLeft=30;fontColor=#232F3E;dashed=0;" vertex="1" parent="1">
          <mxGeometry x="-40" y="-40" width="840" height="1000" as="geometry" />
        </mxCell>
        <mxCell id="5tYZJrWsI3M2HunDDOS0-1" value="AWS Account" style="points=[[0,0],[0.25,0],[0.5,0],[0.75,0],[1,0],[1,0.25],[1,0.5],[1,0.75],[1,1],[0.75,1],[0.5,1],[0.25,1],[0,1],[0,0.75],[0,0.5],[0,0.25]];outlineConnect=0;gradientColor=none;html=1;whiteSpace=wrap;fontSize=12;fontStyle=0;container=1;pointerEvents=0;collapsible=0;recursiveResize=0;shape=mxgraph.aws4.group;grIcon=mxgraph.aws4.group_account;strokeColor=#CD2264;fillColor=none;verticalAlign=top;align=left;spacingLeft=30;fontColor=#CD2264;dashed=0;" vertex="1" parent="5tYZJrWsI3M2HunDDOS0-2">
          <mxGeometry x="30" y="260" width="330" height="720" as="geometry" />
        </mxCell>
        <mxCell id="5tYZJrWsI3M2HunDDOS0-39" style="edgeStyle=orthogonalEdgeStyle;rounded=0;orthogonalLoop=1;jettySize=auto;html=1;" edge="1" parent="5tYZJrWsI3M2HunDDOS0-1" source="5tYZJrWsI3M2HunDDOS0-18" target="5tYZJrWsI3M2HunDDOS0-24">
          <mxGeometry relative="1" as="geometry" />
        </mxCell>
        <mxCell id="5tYZJrWsI3M2HunDDOS0-18" value="" style="sketch=0;points=[[0,0,0],[0.25,0,0],[0.5,0,0],[0.75,0,0],[1,0,0],[0,1,0],[0.25,1,0],[0.5,1,0],[0.75,1,0],[1,1,0],[0,0.25,0],[0,0.5,0],[0,0.75,0],[1,0.25,0],[1,0.5,0],[1,0.75,0]];outlineConnect=0;fontColor=#232F3E;fillColor=#8C4FFF;strokeColor=#ffffff;dashed=0;verticalLabelPosition=bottom;verticalAlign=top;align=center;html=1;fontSize=12;fontStyle=0;aspect=fixed;shape=mxgraph.aws4.resourceIcon;resIcon=mxgraph.aws4.transit_gateway;" vertex="1" parent="5tYZJrWsI3M2HunDDOS0-1">
          <mxGeometry x="20" y="500" width="78" height="78" as="geometry" />
        </mxCell>
        <mxCell id="5tYZJrWsI3M2HunDDOS0-26" value="" style="sketch=0;points=[[0,0,0],[0.25,0,0],[0.5,0,0],[0.75,0,0],[1,0,0],[0,1,0],[0.25,1,0],[0.5,1,0],[0.75,1,0],[1,1,0],[0,0.25,0],[0,0.5,0],[0,0.75,0],[1,0.25,0],[1,0.5,0],[1,0.75,0]];points=[[0,0,0],[0.25,0,0],[0.5,0,0],[0.75,0,0],[1,0,0],[0,1,0],[0.25,1,0],[0.5,1,0],[0.75,1,0],[1,1,0],[0,0.25,0],[0,0.5,0],[0,0.75,0],[1,0.25,0],[1,0.5,0],[1,0.75,0]];outlineConnect=0;fontColor=#232F3E;fillColor=#E7157B;strokeColor=#ffffff;dashed=0;verticalLabelPosition=bottom;verticalAlign=top;align=center;html=1;fontSize=12;fontStyle=0;aspect=fixed;shape=mxgraph.aws4.resourceIcon;resIcon=mxgraph.aws4.cloudtrail;" vertex="1" parent="5tYZJrWsI3M2HunDDOS0-1">
          <mxGeometry x="210" y="40" width="78" height="78" as="geometry" />
        </mxCell>
        <mxCell id="5tYZJrWsI3M2HunDDOS0-24" value="" style="sketch=0;points=[[0,0,0],[0.25,0,0],[0.5,0,0],[0.75,0,0],[1,0,0],[0,1,0],[0.25,1,0],[0.5,1,0],[0.75,1,0],[1,1,0],[0,0.25,0],[0,0.5,0],[0,0.75,0],[1,0.25,0],[1,0.5,0],[1,0.75,0]];outlineConnect=0;fontColor=#232F3E;fillColor=#8C4FFF;strokeColor=#ffffff;dashed=0;verticalLabelPosition=bottom;verticalAlign=top;align=center;html=1;fontSize=12;fontStyle=0;aspect=fixed;shape=mxgraph.aws4.resourceIcon;resIcon=mxgraph.aws4.direct_connect;" vertex="1" parent="5tYZJrWsI3M2HunDDOS0-1">
          <mxGeometry x="20" y="620" width="78" height="78" as="geometry" />
        </mxCell>
        <mxCell id="5tYZJrWsI3M2HunDDOS0-41" value="" style="sketch=0;points=[[0,0,0],[0.25,0,0],[0.5,0,0],[0.75,0,0],[1,0,0],[0,1,0],[0.25,1,0],[0.5,1,0],[0.75,1,0],[1,1,0],[0,0.25,0],[0,0.5,0],[0,0.75,0],[1,0.25,0],[1,0.5,0],[1,0.75,0]];outlineConnect=0;fontColor=#232F3E;fillColor=#7AA116;strokeColor=#ffffff;dashed=0;verticalLabelPosition=bottom;verticalAlign=top;align=center;html=1;fontSize=12;fontStyle=0;aspect=fixed;shape=mxgraph.aws4.resourceIcon;resIcon=mxgraph.aws4.s3;" vertex="1" parent="5tYZJrWsI3M2HunDDOS0-1">
          <mxGeometry x="90" y="40" width="82" height="80" as="geometry" />
        </mxCell>
        <mxCell id="5tYZJrWsI3M2HunDDOS0-51" value="&lt;div&gt;&lt;span style=&quot;background-color: initial;&quot;&gt;CloudTrail&lt;/span&gt;&lt;br&gt;&lt;/div&gt;" style="text;html=1;align=center;verticalAlign=middle;whiteSpace=wrap;rounded=0;" vertex="1" parent="5tYZJrWsI3M2HunDDOS0-1">
          <mxGeometry x="194" y="120" width="110" height="13" as="geometry" />
        </mxCell>
        <mxCell id="5tYZJrWsI3M2HunDDOS0-53" value="&lt;div&gt;&lt;span style=&quot;background-color: initial;&quot;&gt;S3 for flowlog&lt;/span&gt;&lt;br&gt;&lt;/div&gt;" style="text;html=1;align=center;verticalAlign=middle;whiteSpace=wrap;rounded=0;" vertex="1" parent="5tYZJrWsI3M2HunDDOS0-1">
          <mxGeometry x="20" y="130" width="110" height="13" as="geometry" />
        </mxCell>
        <mxCell id="5tYZJrWsI3M2HunDDOS0-3" value="AWS Account" style="points=[[0,0],[0.25,0],[0.5,0],[0.75,0],[1,0],[1,0.25],[1,0.5],[1,0.75],[1,1],[0.75,1],[0.5,1],[0.25,1],[0,1],[0,0.75],[0,0.5],[0,0.25]];outlineConnect=0;gradientColor=none;html=1;whiteSpace=wrap;fontSize=12;fontStyle=0;container=1;pointerEvents=0;collapsible=0;recursiveResize=0;shape=mxgraph.aws4.group;grIcon=mxgraph.aws4.group_account;strokeColor=#CD2264;fillColor=none;verticalAlign=top;align=left;spacingLeft=30;fontColor=#CD2264;dashed=0;" vertex="1" parent="5tYZJrWsI3M2HunDDOS0-2">
          <mxGeometry x="401" y="360" width="319" height="200" as="geometry" />
        </mxCell>
        <mxCell id="5tYZJrWsI3M2HunDDOS0-8" value="" style="sketch=0;points=[[0,0,0],[0.25,0,0],[0.5,0,0],[0.75,0,0],[1,0,0],[0,1,0],[0.25,1,0],[0.5,1,0],[0.75,1,0],[1,1,0],[0,0.25,0],[0,0.5,0],[0,0.75,0],[1,0.25,0],[1,0.5,0],[1,0.75,0]];points=[[0,0,0],[0.25,0,0],[0.5,0,0],[0.75,0,0],[1,0,0],[0,1,0],[0.25,1,0],[0.5,1,0],[0.75,1,0],[1,1,0],[0,0.25,0],[0,0.5,0],[0,0.75,0],[1,0.25,0],[1,0.5,0],[1,0.75,0]];outlineConnect=0;fontColor=#232F3E;fillColor=#E7157B;strokeColor=#ffffff;dashed=0;verticalLabelPosition=bottom;verticalAlign=top;align=center;html=1;fontSize=12;fontStyle=0;aspect=fixed;shape=mxgraph.aws4.resourceIcon;resIcon=mxgraph.aws4.cloudtrail;" vertex="1" parent="5tYZJrWsI3M2HunDDOS0-3">
          <mxGeometry x="100" y="61" width="78" height="78" as="geometry" />
        </mxCell>
        <mxCell id="5tYZJrWsI3M2HunDDOS0-48" value="&lt;div&gt;&lt;span style=&quot;background-color: initial;&quot;&gt;CloudTrail&lt;/span&gt;&lt;br&gt;&lt;/div&gt;" style="text;html=1;align=center;verticalAlign=middle;whiteSpace=wrap;rounded=0;" vertex="1" parent="5tYZJrWsI3M2HunDDOS0-3">
          <mxGeometry x="84" y="139" width="110" height="13" as="geometry" />
        </mxCell>
        <mxCell id="5tYZJrWsI3M2HunDDOS0-12" value="VPC" style="points=[[0,0],[0.25,0],[0.5,0],[0.75,0],[1,0],[1,0.25],[1,0.5],[1,0.75],[1,1],[0.75,1],[0.5,1],[0.25,1],[0,1],[0,0.75],[0,0.5],[0,0.25]];outlineConnect=0;gradientColor=none;html=1;whiteSpace=wrap;fontSize=12;fontStyle=0;container=1;pointerEvents=0;collapsible=0;recursiveResize=0;shape=mxgraph.aws4.group;grIcon=mxgraph.aws4.group_vpc2;strokeColor=#8C4FFF;fillColor=none;verticalAlign=top;align=left;spacingLeft=30;fontColor=#AAB7B8;dashed=0;" vertex="1" parent="5tYZJrWsI3M2HunDDOS0-2">
          <mxGeometry x="200" y="400" width="280" height="120" as="geometry" />
        </mxCell>
        <mxCell id="5tYZJrWsI3M2HunDDOS0-13" value="" style="sketch=0;outlineConnect=0;fontColor=#232F3E;gradientColor=none;fillColor=#8C4FFF;strokeColor=none;dashed=0;verticalLabelPosition=bottom;verticalAlign=top;align=center;html=1;fontSize=12;fontStyle=0;aspect=fixed;pointerEvents=1;shape=mxgraph.aws4.flow_logs;" vertex="1" parent="5tYZJrWsI3M2HunDDOS0-12">
          <mxGeometry x="61" y="21" width="78" height="78" as="geometry" />
        </mxCell>
        <mxCell id="5tYZJrWsI3M2HunDDOS0-54" value="&lt;div&gt;&lt;span style=&quot;background-color: initial;&quot;&gt;vpc flowlogs&lt;/span&gt;&lt;br&gt;&lt;/div&gt;" style="text;html=1;align=center;verticalAlign=middle;whiteSpace=wrap;rounded=0;" vertex="1" parent="5tYZJrWsI3M2HunDDOS0-12">
          <mxGeometry x="45" y="99" width="110" height="13" as="geometry" />
        </mxCell>
        <mxCell id="5tYZJrWsI3M2HunDDOS0-14" value="AWS Account" style="points=[[0,0],[0.25,0],[0.5,0],[0.75,0],[1,0],[1,0.25],[1,0.5],[1,0.75],[1,1],[0.75,1],[0.5,1],[0.25,1],[0,1],[0,0.75],[0,0.5],[0,0.25]];outlineConnect=0;gradientColor=none;html=1;whiteSpace=wrap;fontSize=12;fontStyle=0;container=1;pointerEvents=0;collapsible=0;recursiveResize=0;shape=mxgraph.aws4.group;grIcon=mxgraph.aws4.group_account;strokeColor=#CD2264;fillColor=none;verticalAlign=top;align=left;spacingLeft=30;fontColor=#CD2264;dashed=0;" vertex="1" parent="5tYZJrWsI3M2HunDDOS0-2">
          <mxGeometry x="401" y="580" width="319" height="190" as="geometry" />
        </mxCell>
        <mxCell id="5tYZJrWsI3M2HunDDOS0-15" value="" style="sketch=0;points=[[0,0,0],[0.25,0,0],[0.5,0,0],[0.75,0,0],[1,0,0],[0,1,0],[0.25,1,0],[0.5,1,0],[0.75,1,0],[1,1,0],[0,0.25,0],[0,0.5,0],[0,0.75,0],[1,0.25,0],[1,0.5,0],[1,0.75,0]];points=[[0,0,0],[0.25,0,0],[0.5,0,0],[0.75,0,0],[1,0,0],[0,1,0],[0.25,1,0],[0.5,1,0],[0.75,1,0],[1,1,0],[0,0.25,0],[0,0.5,0],[0,0.75,0],[1,0.25,0],[1,0.5,0],[1,0.75,0]];outlineConnect=0;fontColor=#232F3E;fillColor=#E7157B;strokeColor=#ffffff;dashed=0;verticalLabelPosition=bottom;verticalAlign=top;align=center;html=1;fontSize=12;fontStyle=0;aspect=fixed;shape=mxgraph.aws4.resourceIcon;resIcon=mxgraph.aws4.cloudtrail;" vertex="1" parent="5tYZJrWsI3M2HunDDOS0-14">
          <mxGeometry x="100" y="50" width="78" height="78" as="geometry" />
        </mxCell>
        <mxCell id="5tYZJrWsI3M2HunDDOS0-49" value="&lt;div&gt;&lt;span style=&quot;background-color: initial;&quot;&gt;CloudTrail&lt;/span&gt;&lt;br&gt;&lt;/div&gt;" style="text;html=1;align=center;verticalAlign=middle;whiteSpace=wrap;rounded=0;" vertex="1" parent="5tYZJrWsI3M2HunDDOS0-14">
          <mxGeometry x="84" y="128" width="110" height="13" as="geometry" />
        </mxCell>
        <mxCell id="5tYZJrWsI3M2HunDDOS0-16" value="AWS Account" style="points=[[0,0],[0.25,0],[0.5,0],[0.75,0],[1,0],[1,0.25],[1,0.5],[1,0.75],[1,1],[0.75,1],[0.5,1],[0.25,1],[0,1],[0,0.75],[0,0.5],[0,0.25]];outlineConnect=0;gradientColor=none;html=1;whiteSpace=wrap;fontSize=12;fontStyle=0;container=1;pointerEvents=0;collapsible=0;recursiveResize=0;shape=mxgraph.aws4.group;grIcon=mxgraph.aws4.group_account;strokeColor=#CD2264;fillColor=none;verticalAlign=top;align=left;spacingLeft=30;fontColor=#CD2264;dashed=0;" vertex="1" parent="5tYZJrWsI3M2HunDDOS0-2">
          <mxGeometry x="401" y="790" width="319" height="190" as="geometry" />
        </mxCell>
        <mxCell id="5tYZJrWsI3M2HunDDOS0-17" value="" style="sketch=0;points=[[0,0,0],[0.25,0,0],[0.5,0,0],[0.75,0,0],[1,0,0],[0,1,0],[0.25,1,0],[0.5,1,0],[0.75,1,0],[1,1,0],[0,0.25,0],[0,0.5,0],[0,0.75,0],[1,0.25,0],[1,0.5,0],[1,0.75,0]];points=[[0,0,0],[0.25,0,0],[0.5,0,0],[0.75,0,0],[1,0,0],[0,1,0],[0.25,1,0],[0.5,1,0],[0.75,1,0],[1,1,0],[0,0.25,0],[0,0.5,0],[0,0.75,0],[1,0.25,0],[1,0.5,0],[1,0.75,0]];outlineConnect=0;fontColor=#232F3E;fillColor=#E7157B;strokeColor=#ffffff;dashed=0;verticalLabelPosition=bottom;verticalAlign=top;align=center;html=1;fontSize=12;fontStyle=0;aspect=fixed;shape=mxgraph.aws4.resourceIcon;resIcon=mxgraph.aws4.cloudtrail;" vertex="1" parent="5tYZJrWsI3M2HunDDOS0-16">
          <mxGeometry x="100" y="50" width="78" height="78" as="geometry" />
        </mxCell>
        <mxCell id="5tYZJrWsI3M2HunDDOS0-21" value="VPC" style="points=[[0,0],[0.25,0],[0.5,0],[0.75,0],[1,0],[1,0.25],[1,0.5],[1,0.75],[1,1],[0.75,1],[0.5,1],[0.25,1],[0,1],[0,0.75],[0,0.5],[0,0.25]];outlineConnect=0;gradientColor=none;html=1;whiteSpace=wrap;fontSize=12;fontStyle=0;container=1;pointerEvents=0;collapsible=0;recursiveResize=0;shape=mxgraph.aws4.group;grIcon=mxgraph.aws4.group_vpc2;strokeColor=#8C4FFF;fillColor=none;verticalAlign=top;align=left;spacingLeft=30;fontColor=#AAB7B8;dashed=0;" vertex="1" parent="5tYZJrWsI3M2HunDDOS0-16">
          <mxGeometry x="-201" y="40" width="280" height="110" as="geometry" />
        </mxCell>
        <mxCell id="5tYZJrWsI3M2HunDDOS0-22" value="" style="sketch=0;outlineConnect=0;fontColor=#232F3E;gradientColor=none;fillColor=#8C4FFF;strokeColor=none;dashed=0;verticalLabelPosition=bottom;verticalAlign=top;align=center;html=1;fontSize=12;fontStyle=0;aspect=fixed;pointerEvents=1;shape=mxgraph.aws4.flow_logs;" vertex="1" parent="5tYZJrWsI3M2HunDDOS0-21">
          <mxGeometry x="61" y="16" width="78" height="78" as="geometry" />
        </mxCell>
        <mxCell id="5tYZJrWsI3M2HunDDOS0-56" value="&lt;div&gt;&lt;span style=&quot;background-color: initial;&quot;&gt;vpc flowlogs&lt;/span&gt;&lt;br&gt;&lt;/div&gt;" style="text;html=1;align=center;verticalAlign=middle;whiteSpace=wrap;rounded=0;" vertex="1" parent="5tYZJrWsI3M2HunDDOS0-21">
          <mxGeometry x="45" y="94" width="110" height="13" as="geometry" />
        </mxCell>
        <mxCell id="5tYZJrWsI3M2HunDDOS0-50" value="&lt;div&gt;&lt;span style=&quot;background-color: initial;&quot;&gt;CloudTrail&lt;/span&gt;&lt;br&gt;&lt;/div&gt;" style="text;html=1;align=center;verticalAlign=middle;whiteSpace=wrap;rounded=0;" vertex="1" parent="5tYZJrWsI3M2HunDDOS0-16">
          <mxGeometry x="84" y="128" width="110" height="13" as="geometry" />
        </mxCell>
        <mxCell id="5tYZJrWsI3M2HunDDOS0-4" value="AWS Account" style="points=[[0,0],[0.25,0],[0.5,0],[0.75,0],[1,0],[1,0.25],[1,0.5],[1,0.75],[1,1],[0.75,1],[0.5,1],[0.25,1],[0,1],[0,0.75],[0,0.5],[0,0.25]];outlineConnect=0;gradientColor=none;html=1;whiteSpace=wrap;fontSize=12;fontStyle=0;container=1;pointerEvents=0;collapsible=0;recursiveResize=0;shape=mxgraph.aws4.group;grIcon=mxgraph.aws4.group_account;strokeColor=#CD2264;fillColor=none;verticalAlign=top;align=left;spacingLeft=30;fontColor=#CD2264;dashed=0;" vertex="1" parent="5tYZJrWsI3M2HunDDOS0-2">
          <mxGeometry x="41" y="80" width="679" height="160" as="geometry" />
        </mxCell>
        <mxCell id="5tYZJrWsI3M2HunDDOS0-30" style="edgeStyle=orthogonalEdgeStyle;rounded=0;orthogonalLoop=1;jettySize=auto;html=1;" edge="1" parent="5tYZJrWsI3M2HunDDOS0-4" source="5tYZJrWsI3M2HunDDOS0-23" target="5tYZJrWsI3M2HunDDOS0-10">
          <mxGeometry relative="1" as="geometry" />
        </mxCell>
        <mxCell id="5tYZJrWsI3M2HunDDOS0-23" value="" style="sketch=0;points=[[0,0,0],[0.25,0,0],[0.5,0,0],[0.75,0,0],[1,0,0],[0,1,0],[0.25,1,0],[0.5,1,0],[0.75,1,0],[1,1,0],[0,0.25,0],[0,0.5,0],[0,0.75,0],[1,0.25,0],[1,0.5,0],[1,0.75,0]];points=[[0,0,0],[0.25,0,0],[0.5,0,0],[0.75,0,0],[1,0,0],[0,1,0],[0.25,1,0],[0.5,1,0],[0.75,1,0],[1,1,0],[0,0.25,0],[0,0.5,0],[0,0.75,0],[1,0.25,0],[1,0.5,0],[1,0.75,0]];outlineConnect=0;fontColor=#232F3E;fillColor=#E7157B;strokeColor=#ffffff;dashed=0;verticalLabelPosition=bottom;verticalAlign=top;align=center;html=1;fontSize=12;fontStyle=0;aspect=fixed;shape=mxgraph.aws4.resourceIcon;resIcon=mxgraph.aws4.cloudtrail;" vertex="1" parent="5tYZJrWsI3M2HunDDOS0-4">
          <mxGeometry x="460" y="41" width="78" height="78" as="geometry" />
        </mxCell>
        <mxCell id="5tYZJrWsI3M2HunDDOS0-10" value="" style="sketch=0;points=[[0,0,0],[0.25,0,0],[0.5,0,0],[0.75,0,0],[1,0,0],[0,1,0],[0.25,1,0],[0.5,1,0],[0.75,1,0],[1,1,0],[0,0.25,0],[0,0.5,0],[0,0.75,0],[1,0.25,0],[1,0.5,0],[1,0.75,0]];outlineConnect=0;fontColor=#232F3E;fillColor=#7AA116;strokeColor=#ffffff;dashed=0;verticalLabelPosition=bottom;verticalAlign=top;align=center;html=1;fontSize=12;fontStyle=0;aspect=fixed;shape=mxgraph.aws4.resourceIcon;resIcon=mxgraph.aws4.s3;" vertex="1" parent="5tYZJrWsI3M2HunDDOS0-4">
          <mxGeometry x="580" y="39" width="82" height="80" as="geometry" />
        </mxCell>
        <mxCell id="5tYZJrWsI3M2HunDDOS0-25" value="" style="sketch=0;points=[[0,0,0],[0.25,0,0],[0.5,0,0],[0.75,0,0],[1,0,0],[0,1,0],[0.25,1,0],[0.5,1,0],[0.75,1,0],[1,1,0],[0,0.25,0],[0,0.5,0],[0,0.75,0],[1,0.25,0],[1,0.5,0],[1,0.75,0]];outlineConnect=0;fontColor=#232F3E;fillColor=#DD344C;strokeColor=#ffffff;dashed=0;verticalLabelPosition=bottom;verticalAlign=top;align=center;html=1;fontSize=12;fontStyle=0;aspect=fixed;shape=mxgraph.aws4.resourceIcon;resIcon=mxgraph.aws4.identity_and_access_management;" vertex="1" parent="5tYZJrWsI3M2HunDDOS0-4">
          <mxGeometry x="40" y="41" width="78" height="78" as="geometry" />
        </mxCell>
        <mxCell id="5tYZJrWsI3M2HunDDOS0-29" style="edgeStyle=orthogonalEdgeStyle;rounded=0;orthogonalLoop=1;jettySize=auto;html=1;exitX=0.5;exitY=1;exitDx=0;exitDy=0;exitPerimeter=0;" edge="1" parent="5tYZJrWsI3M2HunDDOS0-4" source="5tYZJrWsI3M2HunDDOS0-10" target="5tYZJrWsI3M2HunDDOS0-10">
          <mxGeometry relative="1" as="geometry" />
        </mxCell>
        <mxCell id="5tYZJrWsI3M2HunDDOS0-28" value="&lt;div&gt;&lt;span style=&quot;background-color: initial;&quot;&gt;CloudTrail&lt;/span&gt;&lt;br&gt;&lt;/div&gt;" style="text;html=1;align=center;verticalAlign=middle;whiteSpace=wrap;rounded=0;" vertex="1" parent="5tYZJrWsI3M2HunDDOS0-4">
          <mxGeometry x="444" y="119" width="110" height="13" as="geometry" />
        </mxCell>
        <mxCell id="5tYZJrWsI3M2HunDDOS0-52" value="&lt;div&gt;&lt;span style=&quot;background-color: initial;&quot;&gt;S3 for CloudTrail&lt;/span&gt;&lt;br&gt;&lt;/div&gt;" style="text;html=1;align=center;verticalAlign=middle;whiteSpace=wrap;rounded=0;" vertex="1" parent="5tYZJrWsI3M2HunDDOS0-4">
          <mxGeometry x="569" y="119" width="110" height="13" as="geometry" />
        </mxCell>
        <mxCell id="5tYZJrWsI3M2HunDDOS0-19" value="VPC" style="points=[[0,0],[0.25,0],[0.5,0],[0.75,0],[1,0],[1,0.25],[1,0.5],[1,0.75],[1,1],[0.75,1],[0.5,1],[0.25,1],[0,1],[0,0.75],[0,0.5],[0,0.25]];outlineConnect=0;gradientColor=none;html=1;whiteSpace=wrap;fontSize=12;fontStyle=0;container=1;pointerEvents=0;collapsible=0;recursiveResize=0;shape=mxgraph.aws4.group;grIcon=mxgraph.aws4.group_vpc2;strokeColor=#8C4FFF;fillColor=none;verticalAlign=top;align=left;spacingLeft=30;fontColor=#AAB7B8;dashed=0;" vertex="1" parent="5tYZJrWsI3M2HunDDOS0-2">
          <mxGeometry x="200" y="620" width="280" height="120" as="geometry" />
        </mxCell>
        <mxCell id="5tYZJrWsI3M2HunDDOS0-20" value="" style="sketch=0;outlineConnect=0;fontColor=#232F3E;gradientColor=none;fillColor=#8C4FFF;strokeColor=none;dashed=0;verticalLabelPosition=bottom;verticalAlign=top;align=center;html=1;fontSize=12;fontStyle=0;aspect=fixed;pointerEvents=1;shape=mxgraph.aws4.flow_logs;" vertex="1" parent="5tYZJrWsI3M2HunDDOS0-19">
          <mxGeometry x="61" y="21" width="78" height="78" as="geometry" />
        </mxCell>
        <mxCell id="5tYZJrWsI3M2HunDDOS0-55" value="&lt;div&gt;&lt;span style=&quot;background-color: initial;&quot;&gt;vpc flowlogs&lt;/span&gt;&lt;br&gt;&lt;/div&gt;" style="text;html=1;align=center;verticalAlign=middle;whiteSpace=wrap;rounded=0;" vertex="1" parent="5tYZJrWsI3M2HunDDOS0-19">
          <mxGeometry x="45" y="99" width="110" height="13" as="geometry" />
        </mxCell>
        <mxCell id="5tYZJrWsI3M2HunDDOS0-31" style="edgeStyle=orthogonalEdgeStyle;rounded=0;orthogonalLoop=1;jettySize=auto;html=1;entryX=0;entryY=0.5;entryDx=0;entryDy=0;entryPerimeter=0;" edge="1" parent="5tYZJrWsI3M2HunDDOS0-2" source="5tYZJrWsI3M2HunDDOS0-8" target="5tYZJrWsI3M2HunDDOS0-10">
          <mxGeometry relative="1" as="geometry" />
        </mxCell>
        <mxCell id="5tYZJrWsI3M2HunDDOS0-32" style="edgeStyle=orthogonalEdgeStyle;rounded=0;orthogonalLoop=1;jettySize=auto;html=1;entryX=0;entryY=0.5;entryDx=0;entryDy=0;entryPerimeter=0;" edge="1" parent="5tYZJrWsI3M2HunDDOS0-2" source="5tYZJrWsI3M2HunDDOS0-15" target="5tYZJrWsI3M2HunDDOS0-10">
          <mxGeometry relative="1" as="geometry" />
        </mxCell>
        <mxCell id="5tYZJrWsI3M2HunDDOS0-33" style="edgeStyle=orthogonalEdgeStyle;rounded=0;orthogonalLoop=1;jettySize=auto;html=1;entryX=0;entryY=0.5;entryDx=0;entryDy=0;entryPerimeter=0;" edge="1" parent="5tYZJrWsI3M2HunDDOS0-2" source="5tYZJrWsI3M2HunDDOS0-17" target="5tYZJrWsI3M2HunDDOS0-10">
          <mxGeometry relative="1" as="geometry" />
        </mxCell>
        <mxCell id="5tYZJrWsI3M2HunDDOS0-35" style="edgeStyle=orthogonalEdgeStyle;rounded=0;orthogonalLoop=1;jettySize=auto;html=1;exitX=0.5;exitY=1;exitDx=0;exitDy=0;" edge="1" parent="5tYZJrWsI3M2HunDDOS0-2" source="5tYZJrWsI3M2HunDDOS0-1" target="5tYZJrWsI3M2HunDDOS0-1">
          <mxGeometry relative="1" as="geometry" />
        </mxCell>
        <mxCell id="5tYZJrWsI3M2HunDDOS0-40" style="edgeStyle=orthogonalEdgeStyle;rounded=0;orthogonalLoop=1;jettySize=auto;html=1;entryX=0;entryY=0.5;entryDx=0;entryDy=0;entryPerimeter=0;" edge="1" parent="5tYZJrWsI3M2HunDDOS0-2" source="5tYZJrWsI3M2HunDDOS0-26" target="5tYZJrWsI3M2HunDDOS0-10">
          <mxGeometry relative="1" as="geometry">
            <Array as="points">
              <mxPoint x="601" y="339" />
              <mxPoint x="601" y="160" />
            </Array>
          </mxGeometry>
        </mxCell>
        <mxCell id="5tYZJrWsI3M2HunDDOS0-45" style="edgeStyle=orthogonalEdgeStyle;rounded=0;orthogonalLoop=1;jettySize=auto;html=1;entryX=0.5;entryY=1;entryDx=0;entryDy=0;entryPerimeter=0;" edge="1" parent="5tYZJrWsI3M2HunDDOS0-2" source="5tYZJrWsI3M2HunDDOS0-13" target="5tYZJrWsI3M2HunDDOS0-41">
          <mxGeometry relative="1" as="geometry" />
        </mxCell>
        <mxCell id="5tYZJrWsI3M2HunDDOS0-46" style="edgeStyle=orthogonalEdgeStyle;rounded=0;orthogonalLoop=1;jettySize=auto;html=1;" edge="1" parent="5tYZJrWsI3M2HunDDOS0-2" source="5tYZJrWsI3M2HunDDOS0-20" target="5tYZJrWsI3M2HunDDOS0-41">
          <mxGeometry relative="1" as="geometry" />
        </mxCell>
        <mxCell id="5tYZJrWsI3M2HunDDOS0-47" style="edgeStyle=orthogonalEdgeStyle;rounded=0;orthogonalLoop=1;jettySize=auto;html=1;" edge="1" parent="5tYZJrWsI3M2HunDDOS0-2" source="5tYZJrWsI3M2HunDDOS0-22" target="5tYZJrWsI3M2HunDDOS0-41">
          <mxGeometry relative="1" as="geometry" />
        </mxCell>
        <mxCell id="5tYZJrWsI3M2HunDDOS0-11" value="&lt;div&gt;&lt;span style=&quot;background-color: initial;&quot;&gt;CloudTrail&lt;/span&gt;&lt;br&gt;&lt;/div&gt;" style="text;html=1;align=center;verticalAlign=middle;whiteSpace=wrap;rounded=0;" vertex="1" parent="1">
          <mxGeometry x="420" y="-200" width="110" height="13" as="geometry" />
        </mxCell>
        <mxCell id="5tYZJrWsI3M2HunDDOS0-6" value="" style="sketch=0;points=[[0,0,0],[0.25,0,0],[0.5,0,0],[0.75,0,0],[1,0,0],[0,1,0],[0.25,1,0],[0.5,1,0],[0.75,1,0],[1,1,0],[0,0.25,0],[0,0.5,0],[0,0.75,0],[1,0.25,0],[1,0.5,0],[1,0.75,0]];outlineConnect=0;fontColor=#232F3E;fillColor=#DD344C;strokeColor=#ffffff;dashed=0;verticalLabelPosition=bottom;verticalAlign=top;align=center;html=1;fontSize=12;fontStyle=0;aspect=fixed;shape=mxgraph.aws4.resourceIcon;resIcon=mxgraph.aws4.macie;" vertex="1" parent="1">
          <mxGeometry x="1325" y="180" width="78" height="78" as="geometry" />
        </mxCell>
        <mxCell id="5tYZJrWsI3M2HunDDOS0-7" value="" style="sketch=0;points=[[0,0,0],[0.25,0,0],[0.5,0,0],[0.75,0,0],[1,0,0],[0,1,0],[0.25,1,0],[0.5,1,0],[0.75,1,0],[1,1,0],[0,0.25,0],[0,0.5,0],[0,0.75,0],[1,0.25,0],[1,0.5,0],[1,0.75,0]];outlineConnect=0;fontColor=#232F3E;fillColor=#DD344C;strokeColor=#ffffff;dashed=0;verticalLabelPosition=bottom;verticalAlign=top;align=center;html=1;fontSize=12;fontStyle=0;aspect=fixed;shape=mxgraph.aws4.resourceIcon;resIcon=mxgraph.aws4.security_hub;" vertex="1" parent="1">
          <mxGeometry x="1200" y="80" width="78" height="78" as="geometry" />
        </mxCell>
        <mxCell id="5tYZJrWsI3M2HunDDOS0-27" value="&lt;div&gt;&lt;span style=&quot;background-color: initial;&quot;&gt;CloudTrail&lt;/span&gt;&lt;br&gt;&lt;/div&gt;" style="text;html=1;align=center;verticalAlign=middle;whiteSpace=wrap;rounded=0;" vertex="1" parent="1">
          <mxGeometry x="430" y="-190" width="110" height="13" as="geometry" />
        </mxCell>
      </root>
    </mxGraphModel>
  </diagram>
</mxfile>
